<svg xmlns="http://www.w3.org/2000/svg" xmlns:xlink="http://www.w3.org/1999/xlink" width="88" height="18" viewBox="0 0 88 18">
    <defs>
        <path id="a" d="M0 15.104h86.12V1H0z"/>
    </defs>
    <g fill="none" fill-rule="evenodd" transform="translate(1 1)">
        <path fill="#9A191F" d="M6.181 12.803c1.28 0 2.041-.7 2.041-1.86 0-1-.7-1.841-2.04-1.841H2.34v3.7h3.841zm-.1-5.761c1.2 0 1.88-.72 1.88-1.72s-.68-1.741-1.88-1.741h-3.74v3.46h3.74zM.001 1.52h6.56c2.441 0 3.801 1.52 3.801 3.4 0 1.68-1.08 2.8-2.32 3.06 1.42.22 2.58 1.64 2.58 3.282 0 2.06-1.38 3.6-3.88 3.6H0V1.522zM17.84 3.581h-3.2v4.241h3.2c1.32 0 2.282-.841 2.282-2.121s-.961-2.12-2.281-2.12zM12.3 1.52h5.86c2.802 0 4.362 1.92 4.362 4.181s-1.58 4.181-4.361 4.181H14.64v4.981H12.3V1.52z"/>
        <mask id="b" fill="#fff">
            <use xlink:href="#a"/>
        </mask>
        <path fill="#9A191F" d="M23.8 14.864h2.34V1.52H23.8zM39.02 3.38c-2.7 0-4.42 2.062-4.42 4.822 0 2.74 1.72 4.82 4.42 4.82 2.681 0 4.421-2.08 4.421-4.82 0-2.76-1.74-4.821-4.42-4.821m0-2.08c4 0 6.82 2.92 6.82 6.9 0 3.982-2.82 6.903-6.82 6.903-4.002 0-6.822-2.921-6.822-6.902 0-3.981 2.82-6.901 6.822-6.901M53.9 8.822c0-1.5-.76-2-1.94-2-1.081 0-2 .64-2.48 1.3v6.741h-2.101V5.201h2.1v1.32c.64-.76 1.88-1.56 3.4-1.56 2.082 0 3.122 1.12 3.122 3.1v6.802H53.9v-6.04zM58.058 14.864h2.102V1.52h-2.102zM62.218 14.864h2.102V5.201h-2.102v9.662zM61.958 2.3c0-.72.6-1.3 1.301-1.3.72 0 1.3.58 1.3 1.3 0 .72-.58 1.3-1.3 1.3a1.31 1.31 0 0 1-1.301-1.3zM72.9 8.822c0-1.5-.76-2-1.94-2-1.081 0-2 .64-2.48 1.3v6.741h-2.101V5.201h2.1v1.32c.64-.76 1.88-1.56 3.4-1.56 2.082 0 3.122 1.12 3.122 3.1v6.802H72.9v-6.04zM78.638 9.242h5.441c-.04-1.14-.82-2.56-2.72-2.56-1.8 0-2.62 1.38-2.72 2.56m2.72-4.28c2.9 0 4.76 2.22 4.76 5.26v.5h-7.46c.16 1.46 1.26 2.661 3.08 2.661.94 0 2.06-.38 2.741-1.06l.96 1.38c-.96.92-2.38 1.4-3.92 1.4-2.902 0-5.063-2.02-5.063-5.08 0-2.802 2.041-5.062 4.902-5.062" mask="url(#b)"/>
    </g>
</svg>
