<?xml version="1.0" encoding="utf-8"?>
<!-- Generator: Adobe Illustrator 22.0.1, SVG Export Plug-In . SVG Version: 6.00 Build 0)  -->
<svg version="1.1" id="Layer_1" xmlns="http://www.w3.org/2000/svg" xmlns:xlink="http://www.w3.org/1999/xlink" x="0px" y="0px"
	 viewBox="0 0 664 346" style="enable-background:new 0 0 664 346;" xml:space="preserve">
<style type="text/css">
	.st0{fill:#9A191F;}
	.st1{fill:#D5B527;}
</style>
<g>
	<g>
		<path class="st0" d="M328.8,254.9h18.9c11.9,0,20.4-1.7,25.7-5.1c5.3-3.4,7.9-8.9,7.9-16.5c0-7.1-2.7-12.3-8.1-15.7
			c-5.4-3.4-13.9-5.1-25.4-5.1h-18.9L328.8,254.9L328.8,254.9z M328.8,182.3h18.9c10.5,0,18.2-1.6,23.1-4.8
			c4.9-3.2,7.3-8.2,7.3-15.1c0-6.5-2.5-11.4-7.6-14.7c-5.1-3.3-12.7-4.9-22.7-4.9h-18.9L328.8,182.3L328.8,182.3z M281.7,286.9V111
			h66.1c26.6,0,46.3,3.7,59,11.1c12.7,7.4,19.1,18.8,19.1,34.3c0,10.3-3.1,18.8-9.4,25.3c-6.3,6.6-15.7,11.3-28.3,14.2
			c14.5,2.6,25.2,7.5,32.3,14.5c7,7,10.5,16.5,10.5,28.3c0,16.1-5.7,28.1-17.1,36.1c-11.4,8-28.7,12-51.8,12L281.7,286.9
			L281.7,286.9z"/>
	</g>
	<g>
		<path class="st0" d="M496.6,190h21.7c10.4,0,18.1-1.9,23.1-5.7c5-3.8,7.5-9.7,7.5-17.8c0-7.9-2.4-13.6-7.3-17.2
			c-4.9-3.6-12.6-5.4-23.2-5.4h-21.7L496.6,190L496.6,190z M447.6,286.9V111h80.8c23,0,40.4,4.8,52.3,14.2
			c11.8,9.5,17.7,23.5,17.7,41.9c0,18-5.9,32.1-17.6,42.2c-11.7,10.1-28,15.1-49,15.1h-35.2v62.5H447.6z"/>
	</g>
	<g>
		<rect x="614.8" y="111" class="st0" width="48.7" height="175.9"/>
	</g>
	<g>
		<path class="st1" d="M69.1,217.3h11.2v-4.1H69.1V217.3z M80.3,187.3H69.1v4.1h11.2V187.3z M69.2,204.3h11.2v-4.1H69.2V204.3z
			 M50.3,237.1h48.9v16.5H86.1v-4.3H63.4v4.3H50.3V237.1z M62.9,168.6h23.7l8.2,65.5h-40L62.9,168.6z M57.1,149.2h7.4v4.3v2.1H71
			v-6.8h7.8v6.8H85v-6.4h7.4v16.5H57.1L57.1,149.2L57.1,149.2z"/>
	</g>
	<g>
		<path class="st1" d="M69,40.9c-6.3,7.5-12,27.9,14.5,38.6C64.2,81.9,49,74.3,48.9,60.3C48.7,42.7,69,40.9,69,40.9 M109.9,30.5
			c-3.1,5.1-5.2,14.1-5.2,24.6c0,11.3,2.4,21,6,25.8c-17.4-1.3-31.1-12-31.1-25.2C79.6,42.6,92.8,32,109.9,30.5 M122.3,30.5
			c17,1.5,30.3,12.1,30.3,25.1c0,13.2-13.7,23.9-31.1,25.2c3.5-4.7,6-14.4,6-25.8C127.5,44.6,125.4,35.6,122.3,30.5 M163.2,40.9
			c0,0,20.3,1.8,20.1,19.4c-0.1,14-15.4,21.6-34.6,19.2C175.2,68.8,169.5,48.4,163.2,40.9 M61.9,84.6c-4.6,0.6-7.8,1-12,2.3
			c-0.7,3.7-2,10.9-3.2,16.6c23.3-3.3,47.1-5.1,71.2-5.1c22.7,0,45.1,1.7,67.1,4.6c-1.2-5.5-2.4-12.4-3.1-16.1
			c-2.9-1.1-6.7-1.9-11.6-2.3c15.5-3.6,24.8-14.4,24.8-24.9c0-13.8-10.9-24.7-37.6-27.4c-9.5-7.4-22.7-10.6-34.1-11.5
			c2.8-2,4.7-5.4,4.7-9.2c0-6.1-6.2-11.1-12.1-11.1c-5.9,0-12.1,5-12.1,11.1c0,3.8,1.9,7.2,4.7,9.2c-11.4,0.9-24.6,4.1-34.1,11.5
			C47.8,35,36.9,46,36.9,59.7C36.9,70.2,46.4,81,61.9,84.6"/>
	</g>
	<g>
		<path class="st1" d="M175.9,149.1c0-1.8-2.1-3.3-4.7-3.5c0.5,0.7,0.8,2,0.8,3.4c0,1.6-0.4,2.9-0.9,3.6
			C173.8,152.4,175.9,150.9,175.9,149.1"/>
	</g>
	<g>
		<path class="st1" d="M169.4,152.6c-0.6-0.7-0.9-2-0.9-3.6c0-1.5,0.3-2.7,0.8-3.4c-2.7,0.2-4.7,1.7-4.7,3.5
			C164.5,150.9,166.7,152.4,169.4,152.6"/>
	</g>
	<g>
		<path class="st1" d="M164.8,152.5c-3.9-1.5-3.1-4.3-2.1-5.4c0,0-3,0.3-3,2.7C159.7,151.8,162,152.9,164.8,152.5"/>
	</g>
	<g>
		<path class="st1" d="M167,158.9v2.6c1.8-0.7,3.6-1.4,5.5-2.1C171.3,158.6,168.9,158.8,167,158.9"/>
	</g>
	<g>
		<path class="st1" d="M185.3,221.2c-4.4,1.3-6.8,15.8-0.3,16.2c1-0.9,1.2-1.8,2-2.9l0.3,0.4c1.8,8.6-2.8,11.4-4.9,16.4
			c-0.8,2-0.6,4.5-1.4,6.2c-0.5-0.7-1.1-1.6-2.3-1c-2.4,1.5-2.2,6.6-4.7,8.2c-1.3,0.2-2.6,0.4-3.9,0.6c-0.2,0.8-0.4,1.6-0.6,2.3
			l-1.1-0.8c-0.6-2.5-0.8-5.7,0.2-7.8c-1.5,1.3-0.7,3.1-0.9,5.3c-1.3-0.1-1.7,0.2-2.4,0.8c-0.2,0.5-0.3,0.9-0.5,1.4
			c-0.2-0.2-0.4-0.4-0.6-0.6c-0.7-3-0.3-5.8,0.6-8.4c-0.1-0.1-0.1-0.1-0.2-0.2c-0.1,0.1-0.3,0.3-0.5,0.4c-0.3,1.6-0.6,3.2-0.9,4.9
			c-0.2,0-0.4,0-0.6,0c-0.3-0.4-0.5-0.8-0.8-1.2c-0.2,0-0.4,0-0.6,0c-0.3,0.5-0.6,1-0.9,1.6c-0.1-0.1-0.2-0.1-0.3-0.2
			c-0.2-1.2-0.3-2.1-0.2-3.3c0.9-1.6,1.9-3.5,3.2-4.7c-0.1-0.1-0.1-0.3-0.2-0.4c-0.9,1-1.7,2-2.6,2.9c-0.2-0.7-0.3-1.4-0.5-2.1
			c-0.6-0.1-1.1-0.1-1.7-0.2v-0.6c0.9-1.9,1.3-0.8,2.7-1.6c0.5-0.5,0.9-0.9,1.4-1.4c3.1-1,4.4,3,7.7,2.1c3.6-1,6.9-7.5,8.8-11
			c-0.7-0.1-1.4-0.1-2.1-0.2c-0.7,1.6-1.7,2.4-3.5,2.6c1-5.2-1.9-6.9-2.9-11.1c-1-4.2-0.5-9.9-0.2-14.4c-3.6-3.5-6.5-7.9-11.4-9.8
			c-1.9-0.8-5.2-1-6.1,1c-0.3,0.4-0.3,0.5-0.3,1.4c0.6,1.2,1.2,1.7,2.4,2.1c-0.4,0.5-0.7,1-1.1,1.6c-2.1,1-3.7,1.3-5.8,0
			c-4.6,4.4,0.3,7.6-3.5,11.3c-0.1,0-0.1,0-0.2,0c0-0.6-0.1-1.2-0.2-1.8c-1.1-0.1-1.9-0.2-2.7-0.9c-1.4,2.2-2.8,5.3-5.2,3l-1.8,1.8
			c-0.2-2.1,0-3.9,0.2-5.5c0.9-0.9,1.7-1.8,2.6-2.7c-0.1-0.2-0.2-0.4-0.3-0.6c0,0-0.1,0-0.2,0c-1,0.9-1.9,1.8-2.9,2.7
			c-0.3-0.1-0.5-0.3-0.8-0.4c-0.2-0.9-0.1-1.1-0.9-1.4c-0.4,0.3-0.7,0.7-1.1,1V222c-0.4-1.4,1.4-4.5,2.1-5.1
			c1.2-0.4,2.4,0.2,3.6,0.4c0-0.2-0.1-0.4-0.2-0.6c-1-0.5-2.4-0.5-3.5-0.8c0-0.8,0.1-1.6,0.2-2.3c-0.6-0.1-1.1-0.3-1.7-0.4
			c0.2-0.5,0.4-0.9,0.6-1.4c1.3-0.3,2.5-0.7,3.8-1c1.3,0.3,2,1.5,2.7,2.5c2.1-0.2,6.5-6.5,7.6-8.4c-2.1-1.1-5-3.5-5.6-6.4
			c7.3-2,9.5-14.1,17.6-17.3c4.4-1.7,8.7-0.2,9.4-6.7c-2.3-0.1-3.2,1.1-3.3,3.7c-2.3-2.1-2.7-5.4-1.8-8.6c0.1,0,0.1,0,0.2,0
			c0.5,1.6,1.8,1.9,3.2,1.3c1.2-2.9,0-6.1-1.8-7c-1.4,0.7-1.5,1.3-2.3,2.9c-1.9-1.7-2.2-5.2-1.8-6.6c0.8-0.3,1.6-0.5,2.4-0.8v-0.2
			c-1-0.1-2-0.1-3-0.2c0.2-0.4,0.3-0.8,0.5-1.2c7.6-1.8,23.1-6.2,23.8,15.2c-0.8,0-1.5,0-2.3,0c1.6,4.5-0.3,9.5,0.3,14.4
			c-0.2,0-0.4,0-0.6,0c-0.5-0.5-0.9-1-1.4-1.5c-0.1,5.3-3.2,10.1-5.9,12.1c4.5,4.5,11,10.3,12.8,14c1.8,3.7,7.8,15.3,10.9,9.2
			c2.1-4.1-11.8-16.2-11.9-27.8c-0.1-9.3,8-28.9-1.8-37.5c3,0.5,9,3.1,9.7,11.1c-0.2-5.4,4.6-7.9,7.4-7.2c-3.5,1.9-4.8,6.6-5.4,9.1
			c-2.2,8.6-3.7,19.4-3.9,24.8c-0.1,2.3,0.4,4.6,1.1,6.8c2-4.5,7-6.7,6.1-5.6c-1.4,1.9-2.9,5-3.9,8.8c2.2-3.6,6.2-5.3,5.4-4.3
			c-1.4,2-3,5.1-3.9,8.9c2.1-4.1,6.6-6,5.8-4.9c-1.3,1.9-2.8,4.8-3.7,8.4c2.3,3.6,4.2,6.7,4,9C202.1,232.3,188.4,229.8,185.3,221.2
			 M156.6,247.3c0-1.7-0.4-2.1-1.1-2.9c-2.7,0.1-2.7,2.6-4.5,3.3c-1.6,0.7-2.2-0.6-3.2,0c-0.2,0.7-0.4,1.3-0.6,2
			c-0.3-0.3-0.5-0.6-0.8-1c-0.8-2.1,0.3-4.7,0.8-6.8c-0.2,0-0.4,0-0.6,0c-0.2,1.2-0.6,2.8-1.2,3.5c-0.5-0.5-1-1-1.5-1.5
			c-0.7,0.4-1.3,1-1.8,1v-0.2c0.2-3.5,2.7-4.3,3.2-7.2c-0.1,0-0.1,0-0.2,0c-0.9,1-1.8,2.1-2.7,3.1c-0.1-1.3-0.4-1.9-0.9-2.7
			c-0.5,0-1,0-1.5,0v-0.2c1-2.8,3.5-2.9,6.1-2.4v-0.8c-0.1,0-0.2,0-0.3,0c-0.9-0.3-1.7-0.5-2.6-0.8v-0.2c0.2-0.8,0.6-1.1,0.5-1.8
			c-0.3-0.4-0.5-0.8-0.8-1.2v-0.2c4.6-0.4,5.2,3,7.9,5.2c2.2,1.8,6,1.3,9.1,0.9c-0.1-0.2-0.1-0.4-0.2-0.6c-2.3-2.2-4.3-5.8-4.2-10.9
			c-2.2-0.1-3.4-2-3.6-4.5c6.9,0.1,6.3-10.9,14.4-4.4c-1.2,3.3,1.8,4.1,3,6c-0.1,1.4-0.2,2.7-0.3,4.1c-1.4-1.2-3.7-1.8-4.6,0.6
			c-2,4.6,4.4,12.3,6.2,13.8v0.2c-3.7,4.4-4.9,1.8-10.2,3.6C158.9,245,158.4,246.8,156.6,247.3 M135,176c0.7,0.8,1.4,1.7,2.1,2.5
			c0.2,0,0.3,0,0.5,0v-0.8c-0.7-1.1-1.3-2.2-2-3.3c-0.2-1.1,0.1-2.2-0.3-3.5v-0.2c1.3,0.2,4,1.7,4.5,2.9c0.5,1.1,0.4,2.3,1.1,3.1
			c0.1,0,0.1,0,0.2,0v-0.4c-0.1-1-0.2-2.1-0.3-3.1c0.2-1,0.9-1.5,0.9-3.3c4.5,2.5,1,7.5,2.1,11.1c1,3.1,4.7,4.7,5.3,7.9
			c-1.4,2-2.6,4.2-4.2,5.9c-0.1,0-0.2,0-0.3,0c-1.8-2.3-3.5-4.5-5.3-6.8c-0.1,0-0.2,0-0.3,0c-0.6,0.8-1.1,1.7-1.7,2.5
			c-1.5,0-3.4,0.3-4.2-0.7v-0.2c5.1-4.1,0.1-9.9-0.9-11.7c-0.5-0.5-0.9-1-1.4-1.5C131.8,176,133.8,175.4,135,176 M156.4,165.7
			c-3.1,6.8,4.8,2.4,6.5,2c1-0.3,1.7,0,2.6,0.1v0.3c-3.7,0.2-4.8,4-8.2,4.3C152.8,172.9,153.9,166.7,156.4,165.7 M163.7,145.5
			c1.5-1.2,3.5-1.7,5.3-1.8c-0.4-0.3-0.7-0.8-0.7-1.4c0-1,1-1.7,1.9-1.7c0.9,0,1.9,0.8,1.9,1.7c0,0.6-0.3,1.1-0.7,1.4
			c1.8,0.1,3.8,0.6,5.3,1.8c4.2,0.4,5.9,2.1,5.9,4.3c0,1.8-1.8,3.7-4.6,4.1c-0.1,0.6-0.2,1.5-0.3,1.8c-1.7-0.5-4.9-0.8-7.5-0.8
			s-6.1,0.4-7.5,0.8c-0.1-0.3-0.2-1.2-0.3-1.8c-2.9-0.4-4.6-2.3-4.6-4.1C157.9,147.6,159.6,145.9,163.7,145.5 M232.3,241.6l0-0.2
			c-0.4-2.3-14-84.4-21.4-123.4c-30-4.7-60.6-7.2-91.9-7.2c-0.7,0-1.4,0.1-2.1,0.1v212.7c-41.9-27.5-82.6-53.9-89.3-59.2
			c-4-3.2-6.6-6.1-7.6-8.7c-1.7-4.3-1-7.9-0.3-11.6c0.5-2.5,15.2-90.5,22.3-128c-6.4,0.8-11.4,1.7-17.7,2.8
			C16.9,158,2,239.1,1.6,241.4c-1,4.9-2.2,11.4,1,19.7c2,5.2,6,10.1,12.2,14.9c9.2,7.1,77.8,52.8,98.6,66.4l4.6,3l3.8-2.5
			c3.5-2.4,87-58.9,97.3-66.9c6.2-4.9,10.2-9.7,12.2-14.9C234.5,252.9,233.2,246.4,232.3,241.6"/>
	</g>
	<g>
		<path class="st1" d="M180.7,149.8c0-2.4-2.9-2.7-2.9-2.7c0.9,1,1.8,3.8-2.1,5.3C178.5,152.8,180.7,151.8,180.7,149.8"/>
	</g>
</g>
</svg>
